<?xml version="1.0" encoding="UTF-8"?>
<svg id="Layer_2" data-name="Layer 2" xmlns="http://www.w3.org/2000/svg" viewBox="0 0 484.27 149.65">
  <defs>
    <style>
      .cls-1 {
        fill: none;
        stroke: #fff;
        stroke-miterlimit: 10;
        stroke-width: 3.68px;
      }

      .cls-2 {
        fill: #fff;
      }
    </style>
  </defs>
  <g id="Layer_1-2" data-name="Layer 1">
    <g>
      <g>
        <path class="cls-2" d="M143.2,8.19h.25c9.54,0,16.93,2.63,22.17,7.9,5.8,5.82,8.69,12.82,8.69,21.01s-2.9,15.21-8.69,21.01c-5.24,5.26-12.63,7.9-22.17,7.9h-.25v.07h-3.26V8.11h3.26v.07ZM143.2,11.52v51.18h.25c8.6,0,15.2-2.32,19.81-6.95,5.14-5.14,7.72-11.36,7.72-18.66s-2.57-13.49-7.72-18.65c-4.61-4.61-11.22-6.92-19.81-6.92h-.25Z"/>
        <path class="cls-2" d="M233.23,15.99c5.81,5.81,8.71,12.82,8.71,21.03s-2.9,15.22-8.71,21.03-12.82,8.71-21.03,8.71-15.22-2.9-21.03-8.71c-5.81-5.81-8.71-12.82-8.71-21.03s2.9-15.22,8.71-21.03c5.81-5.81,12.82-8.71,21.03-8.71s15.22,2.9,21.03,8.71ZM212.2,10.61c-7.29,0-13.52,2.58-18.67,7.73s-7.73,11.38-7.73,18.67,2.58,13.52,7.73,18.69c5.16,5.17,11.38,7.75,18.67,7.75s13.52-2.58,18.67-7.75c5.16-5.17,7.73-11.4,7.73-18.69s-2.58-13.52-7.73-18.67c-5.16-5.16-11.38-7.73-18.67-7.73Z"/>
        <path class="cls-2" d="M265.99,45.93c-.31.02-.64.04-.98.04h-9.85v20.1h-3.26V8.11h15.21c4.42.6,8.17,2.45,11.27,5.54,3.69,3.69,5.54,8.15,5.54,13.37s-1.85,9.71-5.54,13.4c-2.56,2.56-5.49,4.24-8.8,5.04l13.37,20.61h-4.02l-12.93-20.14ZM255.16,11.41v31.26h9.85c4.3,0,7.97-1.53,11.03-4.58,3.05-3.05,4.58-6.74,4.58-11.07s-1.53-8-4.58-11.05c-3.06-3.04-6.73-4.56-11.03-4.56h-9.85Z"/>
        <path class="cls-2" d="M316.7,8.11v3.26h-22.1v24.09h22.1v3.26h-22.1v27.35h-3.26V8.11h25.36Z"/>
        <path class="cls-2" d="M352.02,8.11v3.26h-22.1v24.09h22.1v3.26h-22.1v27.35h-3.26V8.11h25.36Z"/>
        <path class="cls-2" d="M390.96,8.11v3.26h-25.72v24.09h25.72v3.26h-25.72v24.09h25.72v3.26h-28.98V8.11h28.98Z"/>
        <path class="cls-2" d="M415.34,33.98c-4.13-1.38-7.39-3.26-9.78-5.65-2.39-2.39-3.59-5.29-3.59-8.69s1.2-6.2,3.59-8.6c2.39-2.4,5.29-3.6,8.69-3.6s6.28,1.2,8.69,3.59c1.33,1.28,2.25,2.72,2.75,4.31l-2.93,1.16c-.43-1.18-1.15-2.27-2.14-3.26-1.76-1.74-3.89-2.61-6.38-2.61s-4.61.88-6.38,2.63c-1.76,1.75-2.64,3.88-2.64,6.39s.88,4.61,2.64,6.38c1.64,1.62,3.91,3.1,6.81,4.46,4.64,1.5,8.54,3.83,11.7,6.99,3.36,3.33,5.04,7.37,5.04,12.1s-1.68,8.81-5.04,12.17-7.4,5.04-12.13,5.04-8.78-1.69-12.13-5.07c-2.68-2.68-4.29-5.8-4.82-9.35l3.08-1.12c.34,3.14,1.68,5.88,4.02,8.22,2.73,2.73,6.01,4.09,9.85,4.09s7.16-1.36,9.89-4.09,4.09-6.02,4.09-9.89-1.36-7.12-4.09-9.85c-2.39-2.39-5.33-4.3-8.8-5.72Z"/>
        <path class="cls-2" d="M452.97,11.37v54.7h-3.26V11.37h-14.67v-3.26h32.6v3.26h-14.67Z"/>
        <path class="cls-2" d="M143.2,108v28.07h-3.26v-57.96h3.26v24.67l18.51-24.67h4.2l-17.39,23.33,22.46,34.63h-4.02l-20.57-32.02-3.19,3.95Z"/>
        <path class="cls-2" d="M179.68,136.07v-57.96h3.26v54.7h22.46v3.26h-25.72Z"/>
        <path class="cls-2" d="M243.06,78.11v3.26h-25.72v24.09h25.72v3.26h-25.72v24.09h25.72v3.26h-28.98v-57.96h28.98Z"/>
        <path class="cls-2" d="M282,78.11v3.26h-25.72v24.09h25.72v3.26h-25.72v24.09h25.72v3.26h-28.98v-57.96h28.98Z"/>
        <path class="cls-2" d="M306.38,103.98c-4.13-1.38-7.39-3.26-9.78-5.65-2.39-2.39-3.59-5.29-3.59-8.69s1.2-6.2,3.59-8.6c2.39-2.4,5.29-3.6,8.69-3.6s6.28,1.2,8.69,3.59c1.33,1.28,2.25,2.72,2.75,4.31l-2.93,1.16c-.43-1.18-1.15-2.27-2.14-3.26-1.76-1.74-3.89-2.61-6.38-2.61s-4.61.88-6.38,2.63c-1.76,1.75-2.64,3.88-2.64,6.39s.88,4.61,2.64,6.38c1.64,1.62,3.91,3.1,6.81,4.46,4.64,1.5,8.54,3.83,11.7,6.99,3.36,3.33,5.04,7.37,5.04,12.1s-1.68,8.81-5.04,12.17-7.4,5.04-12.13,5.04-8.78-1.69-12.13-5.07c-2.68-2.68-4.29-5.8-4.82-9.35l3.08-1.12c.34,3.14,1.68,5.88,4.02,8.22,2.73,2.73,6.01,4.09,9.85,4.09s7.16-1.36,9.89-4.09,4.09-6.02,4.09-9.89-1.36-7.12-4.09-9.85c-2.39-2.39-5.33-4.3-8.8-5.72Z"/>
        <path class="cls-2" d="M344.02,81.37v54.7h-3.26v-54.7h-14.67v-3.26h32.6v3.26h-14.67Z"/>
        <path class="cls-2" d="M391.29,113.87h-20.07l-8.08,22.2h-3.48l21.59-59.3,21.55,59.3h-3.44l-8.08-22.2ZM390.09,110.6l-8.84-24.3-8.84,24.3h17.68Z"/>
        <path class="cls-2" d="M413.31,78.19h.25c9.54,0,16.93,2.63,22.17,7.9,5.8,5.82,8.69,12.82,8.69,21.01s-2.9,15.21-8.69,21.01c-5.24,5.26-12.63,7.9-22.17,7.9h-.25v.07h-3.26v-57.96h3.26v.07ZM413.31,81.52v51.18h.25c8.6,0,15.2-2.32,19.81-6.95,5.14-5.14,7.72-11.36,7.72-18.66s-2.57-13.49-7.72-18.65c-4.61-4.61-11.22-6.92-19.81-6.92h-.25Z"/>
        <path class="cls-2" d="M467.79,81.37v54.7h-3.26v-54.7h-14.67v-3.26h32.6v3.26h-14.67Z"/>
      </g>
      <g>
        <path class="cls-1" d="M92.78,17.61v76.02c0,25.11-20.36,45.47-45.47,45.47S1.84,118.74,1.84,93.63V17.61c45.42-15.87,90.94,0,90.94,0Z"/>
        <g id="sVwnFJ">
          <g>
            <path class="cls-2" d="M24.36,80.03c-.02-2.94-.99-5.89-2.15-8.56-1.5-3.46-3.5-6.79-5.63-9.89l2.78,1.43c2.38,1.06,4.85,1.93,7.4,2.51-.06,3.21,2.47,6.32,5.74,6.57s8.12-1.99,10.23-4.54c1.86-2.24,1.32-5.3-.64-7.3-.18-.18-.89-.63-.87-.78l6.05-13.85,6.12,13.85-.06.15c-1.29.82-2.3,2.54-2.55,4.03-.85,4.92,7.18,8.75,11.25,8.45,3.34-.25,5.86-3.3,5.82-6.57,2.6-.6,5.13-1.48,7.56-2.59l2.62-1.35c-2.26,3.28-4.38,6.81-5.89,10.51-1.02,2.5-1.91,5.2-1.89,7.94H24.36Z"/>
            <path class="cls-2" d="M70.25,81.48v1.56c-.05.08-.2.12-.28.12H24.36v-1.68h45.89Z"/>
            <rect class="cls-2" x="24.36" y="84.52" width="45.89" height="1.44"/>
          </g>
        </g>
      </g>
    </g>
  </g>
</svg>