<?xml version="1.0" encoding="UTF-8"?>
<svg id="Layer_2" data-name="Layer 2" xmlns="http://www.w3.org/2000/svg" viewBox="0 0 200.34 218.57">
  <defs>
    <style>
      .cls-1 {
        fill: #272618;
      }

      .cls-2 {
        fill: #fff;
      }

      .cls-3 {
        fill: #d92927;
      }

      .cls-4 {
        fill: #2b2617;
      }

      .cls-5 {
        fill: #f9e700;
      }

      .cls-6 {
        fill: #f37983;
      }

      .cls-7 {
        fill: #2b2316;
      }

      .cls-8 {
        fill: #1e251a;
      }

      .cls-9 {
        fill: #322c17;
      }

      .cls-10 {
        fill: #1e221b;
      }

      .cls-11 {
        fill: #2b1b17;
      }

      .cls-12 {
        fill: #211c17;
      }

      .cls-13 {
        fill: #2f2a18;
      }

      .cls-14 {
        fill: #292016;
      }

      .cls-15 {
        fill: #fbfcfc;
      }
    </style>
  </defs>
  <g id="Layer_1-2" data-name="Layer 1">
    <g>
      <g>
        <path class="cls-12" d="M9.36,23.16c1.25-1.58,2.44-3.1,3.54-4.69,1.33-1.92,2.58-3.89,3.91-5.92,1.37,1.37,3.01,1.19,4.7.71,9.08-2.63,18.21-5.09,27.54-6.69,7.34-1.27,14.73-2.35,22.13-3.27,4.8-.6,9.64-.83,14.46-1.15,2.87-.18,5.74-.24,8.61-.31,1.97-.05,3.97-.11,5.95-.13V0c-5.64,0-11.27,0-16.91,0-.14.12-.28.33-.44.35-1.65.14-3.31.24-4.96.39-2.52.22-5.05.45-7.57.7-2.34.24-4.68.46-7.01.76-2.66.35-5.32.72-7.97,1.15-3.04.49-6.06,1.01-9.08,1.59-2.73.53-5.46,1.04-8.15,1.75-5.09,1.33-10.15,2.79-15.21,4.19-.58.16-1.17.34-1.76.41-2.11.27-2.95-.55-3.26-3.08-.02-.12.03-.26-.02-.37-.12-.24-.26-.63-.43-.66-.22-.03-.57.2-.7.4-.62,1.11-1.14,2.28-1.79,3.36-2.64,4.39-5.68,8.47-9.18,12.23-1.73,1.87-3.54,3.63-5.71,5.16-.06.39-.06.71-.06,1.02,1.75-.18,3.48-.17,5.2.31,2.91.81,4.78,2.76,5.9,5.45.87,2.05,1.21,4.2,1.32,6.44.15,3.44.48,6.87.71,10.31.14,2.24.23,4.47.37,6.7.23,3.58.5,7.17.71,10.76.11,1.85.11,3.7.21,5.54.16,3.08.37,6.16.53,9.23.08,1.58.15,3.15.19,4.72.08,2.6.09,5.22.2,7.82.16,4.01.37,8.03.54,12.04.14,3.17.24,6.35.37,9.52.18,4.5.37,9.01.55,13.52.05,1.15.1,2.29.18,3.44.24,3.43.48,6.86.71,10.3.29,4.16,1.24,8.19,2.48,12.14,1.02,3.25,2.2,6.47,3.6,9.57,1.39,3.1,3.04,6.11,4.78,9.04,1.47,2.46,3.17,4.79,4.86,7.1,1.34,1.85,2.75,3.67,4.26,5.38,1.94,2.19,3.91,4.35,6.04,6.36,3.96,3.74,8.18,7.18,12.74,10.17,4.18,2.74,8.57,5.13,13.16,7.14,4.09,1.78,8.28,3.24,12.62,4.29,2.52.6,5.11.93,7.65,1.4.55.1,1.08.27,1.72.48,2.9.03,5.77.05,8.63.06v-2.4c-8,.05-15.82-1.2-23.48-3.63-9.22-2.91-17.58-7.52-25.49-13.07-8.17-5.74-14.42-13.17-19.71-21.52-3.86-6.13-7.06-12.58-9.39-19.45-1.43-4.25-2.22-8.62-2.6-13.07-.37-4.31-.71-8.62-.97-12.94-.22-3.56-.32-7.14-.42-10.71-.1-3.58-.15-7.16-.23-10.74v-1.04h1.17c.02.13.06.28.06.42.08,4.95.06,9.89.23,14.84.16,4.65.43,9.31.83,13.95.36,4.24.74,8.5,1.47,12.69,1.03,6.03,3.43,11.61,6.15,17.06,3.25,6.52,7.2,12.57,11.79,18.22,4.85,5.95,10.81,10.58,17.25,14.66,7.37,4.67,15.2,8.32,23.66,10.58,4.9,1.32,9.88,2.12,14.95,2.44,1.59.09,3.17.14,4.75.14v-13.9c-1.57,0-3.13,0-4.7,0-7.87-.08-15.73-.55-23.47-2.2-1.49-.32-2.94-.91-4.39-1.44-.66-.24-1.09-.72-1.18-1.48-.06-.44-.18-.89-.33-1.32-.35-.99-.39-1.76.49-2.63,1.02-1.02.93-2.52.8-3.88-.21-2.23-.92-4.26-2.7-5.75-.36-.3-.85-.64-1.27-.63-.84.03-.99-.44-1.18-1.06-1.57-5.11-3.31-10.15-5.62-14.98-.51-1.06-1.2-2.03-1.74-3.08-.21-.39-.31-.88-.28-1.33.13-1.9.37-3.79.47-5.7.03-.5-.14-1.08-.39-1.52-2.07-3.6-4.18-7.18-6.34-10.86-1.94,1.18-3.87,2.33-5.82,3.5-1.93,1.17-3.86,2.32-5.78,3.48-.04,0-.08.02-.1.03h-.02s-.04,0-.06.02c-.02,0-.03,0-.05,0,0,0-.02.02-.03.02.03-.04.06-.08.08-.11.06-.09.09-.21.14-.33.04-.13.08-.26.14-.38,2.1-3.71,4.21-7.43,6.37-11.22-4.01-2.22-8.01-4.43-12-6.64,0-.08.02-.15.03-.24h13.59v-13.95c2.38,4.04,4.66,7.95,7.02,11.97,3.94-2.37,7.86-4.73,11.78-7.09.04.04.08.08.12.13-2.25,3.96-4.49,7.92-6.79,11.94,4.04,2.24,8.01,4.43,11.98,6.62,0,.07-.02.13-.03.2h-13.72v1.02c.07,3.79.14,7.58.19,11.37.02.88.39,1.51,1.04,2.09,2.14,1.84,4.56,3.2,7.17,4.33-2.18,4.31-2.44,8.79-1.48,13.42.05-.5.11-.99.13-1.49.09-2.32.37-4.63,1.68-6.61.87-1.31,1.83-2.58,3.65-2.71,2.66-.2,5.11,1.97,5.14,4.62.05,3.5-.77,6.07-2.75,8.53-.24-.6-.44-1.18-.7-1.73-.38-.84-1-1.4-1.96-1.37-.96.04-1.55.66-1.92,1.48-.53,1.15-.57,2.32.25,3.35.97,1.2,2.31,1.5,3.78,1.27,2.48-.39,4-2.07,5.14-4.1,2.12-3.76,3.15-7.85,3.38-12.15.07-1.19,0-2.4,0-3.59-.08-.03-.15-.06-.24-.08-.23.46-.44.93-.7,1.37-.69,1.17-1.61,2-3.07,1.85-1.34-.13-2.34-.82-2.8-2.12-.81-2.3,1.06-4.55,3.53-4.24.41.05.83.14,1.36.24-1.25-1.7-1.93-3.39-.36-5.12.77-.86,2.32-1.02,3.29-.4,1.96,1.26,1.67,3.06.97,4.92.73-.29,1.38-.63,2.07-.81,1.45-.37,2.71.26,3.4,1.61.71,1.38.47,2.91-.6,3.82-1.28,1.09-2.65,1.22-3.9.29-.6-.45-1.11-1.02-1.73-1.6-.11-.04-.18.03-.18.03.39,1.4.73,2.81,1.15,4.18.25.82.53,1.64.86,2.44,1.16,2.87,2.59,5.63,4.84,7.84,2.05,1.99,4.42,3.2,7.39,2.62,1.75-.33,2.77-1.41,2.94-3.02.16-1.48-.76-2.96-2.19-3.54-1.74-.71-3.11.14-3.23,2.04-.04.56,0,1.14,0,2.02-.68-.7-1.18-1.18-1.65-1.7-1.68-1.85-2.73-4.02-2.86-6.53-.09-1.68.43-3.61,2.13-4.52,1.57-.85,3.82-.49,5.44.86,1.88,1.55,3.06,3.57,3.86,5.83.11.3.24.59.47.83-.61-4.51-2.62-8.4-5.55-11.91,1.14-.92,2.28-1.75,3.31-2.72,1.2-1.15,2.31-2.4,3.41-3.65.22-.24.34-.74.26-1.05-1.02-4.03-2.08-8.05-3.13-12.06,0-.06-.07-.09-.17-.23-4.36,1.19-8.75,2.4-12.87,3.53,3.03-3.1,6.22-6.37,9.24-9.49-3.25-3.43-6.39-6.74-9.57-10.09,4.38,1.19,8.79,2.41,13.3,3.64,1.18-4.49,2.33-8.91,3.49-13.33.06,0,.1-.02.16-.03.04.14.08.29.11.43v-2.51h-31.63s-.04-.1-.06-.16c.79-.35,1.58-.71,2.39-1.03,9.36-3.87,18.72-7.74,28.08-11.63.43-.18.83-.25,1.22-.21v-1.27c-.29-.03-.6,0-.84.1-10.99,4.52-21.96,9.08-32.96,13.6-.9.37-1.93.58-2.9.59-7.83.05-15.67.03-23.6.03h-21.39c-.02-.07-.04-.13-.06-.2.95-.4,1.91-.81,2.86-1.2,20.26-8.38,40.53-16.75,60.78-25.12,5.8-2.41,11.59-4.82,17.4-7.21.19-.08.45-.1.7-.07v-1.2c-.27-.05-.55-.05-.77.05-11.58,4.78-23.16,9.58-34.74,14.37-10.48,4.34-20.98,8.68-31.46,13.01-4.82,1.99-9.65,3.99-14.47,5.99-.22.08-.44.17-.75.28-.04-.28-.09-.51-.09-.72-.03-2.41-.04-4.8-.08-7.2-.06-3.52-.12-7.03-.2-10.55,0-.67-.06-1.34-.13-1.99-.08-.68.18-1.02.83-1.29,16.93-6.99,33.87-14,50.81-21.01,10.09-4.17,20.19-8.35,30.3-12.5.22-.08.49-.1.76-.07v-1.26c-.3-.02-.6,0-.84.1-10.92,4.49-21.81,8.99-32.71,13.5-13.8,5.72-27.62,11.44-41.43,17.16-2.51,1.04-5.03,2.07-7.64,3.14-.06-.47-.13-.85-.14-1.23-.08-3.67-.12-7.33-.21-11.01-.05-2.02-.12-4.05-.23-6.08-.03-.64.16-.95.78-1.2,8.91-3.67,17.82-7.36,26.73-11.06,2.8-1.16,5.6-2.31,8.47-3.5,15.47-6.4,30.88-12.78,46.3-19.13.26-.1.6-.15.91-.13v-1.26c-.29-.04-.6,0-.85.09-14.98,6.18-29.96,12.37-44.93,18.57-12.2,5.04-24.39,10.1-36.59,15.15-.24.1-.5.17-.84.29-.23-6.31-.44-12.51-.66-18.79,0-.34.02-.58,0-.82-.09-1.65-.1-1.65,1.44-2.29,10.79-4.47,21.6-8.92,32.39-13.39,12.39-5.12,24.79-10.27,37.18-15.4,3.98-1.65,7.95-3.3,11.96-4.91.25-.1.58-.14.89-.11v-1.3c-.31-.04-.63,0-.99.15-14.67,6.1-29.35,12.18-44.03,18.25-12.35,5.11-24.71,10.21-37.07,15.32-.61.25-1.22.5-1.94.79-.12-1.65-.19-3.18-.36-4.7-.4-3.65-1.33-7.11-3.92-9.87-.63-.68-1.37-1.25-2.27-2.05,2.91-1.11,5.79-2.2,8.66-3.29,2.86-1.08,5.7-2.16,8.54-3.24.63-.22,1.27-.43,1.9-.65.63-.23,1.27-.44,1.9-.64.55-.18,1.09-.36,1.65-.53.77-.26,1.54-.5,2.31-.73.97-.3,1.95-.59,2.91-.87.55-.17,1.11-.33,1.66-.48.97-.28,1.94-.55,2.91-.81,5.11-1.37,10.25-2.55,15.44-3.51,5.79-1.07,11.64-1.95,17.49-2.64,4.92-.58,9.88-.82,14.84-1.13,2.63-.17,5.27-.2,7.91-.21.82,0,1.65,0,2.46,0v-1.73c-1.9-.02-3.8,0-5.7.05-6.04.16-12.06.68-18.09,1.18-7.5.64-14.92,1.88-22.29,3.41-15.19,3.16-29.88,7.82-44.09,14.03-.06.03-.11.05-.19.06-.05.02-.1.04-.16.05-.1.03-.17.05-.23.06-.04.02-.08.03-.13.04,0,0,0-.02,0-.04,0-.04,0-.07,0-.1ZM61.45,185.26c0-.13.03-.25.05-.39,0-.08.02-.16.05-.24.03-.1.05-.21.08-.31.04-.2.1-.4.19-.6,0-.02.02-.04.03-.07.02-.07.05-.13.08-.2,0-.02.02-.03.03-.05,0,0,0,0,0-.02.07-.12.15-.23.24-.32.38-.4.84-.51,1.31-.38.07,0,.13.04.2.08.12.05.25.12.38.21.07.05.13.1.2.16s.13.11.19.18c.07.07.12.13.18.2,1.57,1.87,2.12,4.11,1.85,6.53-.03.29-.13.59-.24.87-.53,1.32-1.45,1.65-2.43.63-.77-.8-1.37-1.84-1.8-2.88-.28-.69-.47-1.38-.55-2.09-.06-.43-.07-.88,0-1.32ZM116.89,139.8v.02s0,.06,0,.08c0-.04,0-.08.02-.11,0,0,0,0-.03,0ZM182.15,102.2v.09c0-.18.03-.36.04-.53-.02.14-.03.29-.04.43Z"/>
        <path class="cls-6" d="M100.21,8.31v21.61c-.29-.04-.6,0-.85.09-14.98,6.18-29.96,12.37-44.93,18.57-12.2,5.04-24.39,10.1-36.59,15.15-.24.1-.5.17-.84.29-.23-6.31-.44-12.51-.66-18.79,0-.34.02-.58,0-.82-.09-1.65-.1-1.65,1.44-2.29,10.79-4.47,21.6-8.92,32.39-13.39,12.39-5.12,24.79-10.27,37.18-15.4,3.98-1.65,7.95-3.3,11.96-4.91.25-.1.58-.14.89-.11Z"/>
        <path class="cls-6" d="M100.21,51.88v21.64c-.27-.05-.55-.05-.77.05-11.58,4.78-23.16,9.58-34.74,14.37-10.48,4.34-20.98,8.68-31.46,13.01-4.82,1.99-9.65,3.99-14.47,5.99-.22.08-.44.17-.75.28-.04-.28-.09-.51-.09-.72-.03-2.41-.04-4.8-.08-7.2-.06-3.52-.12-7.03-.2-10.55,0-.67-.06-1.34-.13-1.99-.08-.68.18-1.02.83-1.29,16.93-6.99,33.87-14,50.81-21.01,10.09-4.17,20.19-8.35,30.3-12.5.22-.08.49-.1.76-.07Z"/>
        <path class="cls-3" d="M182.18,101.76c0,.17-.03.35-.04.53v-.09c0-.14.02-.29.04-.43Z"/>
        <path class="cls-2" d="M99.5,128.19c.09-5.23.19-10.33.28-15.43h.38c.02.32.04.63.06.95v-2.7c-.04-.14-.08-.29-.11-.43-.06,0-.1.02-.16.03-1.16,4.42-2.31,8.84-3.49,13.33-4.5-1.23-8.91-2.44-13.3-3.64,3.18,3.35,6.32,6.66,9.57,10.09-3.03,3.11-6.22,6.38-9.24,9.49,4.12-1.13,8.51-2.33,12.87-3.53.1.13.16.17.17.23,1.05,4.01,2.12,8.03,3.13,12.06.08.31-.05.81-.26,1.05-1.1,1.25-2.21,2.5-3.41,3.65-1.02.97-2.17,1.8-3.31,2.72,2.92,3.52,4.94,7.4,5.55,11.91-.24-.24-.36-.53-.47-.83-.81-2.26-1.98-4.28-3.86-5.83-1.63-1.34-3.87-1.7-5.44-.86-1.7.91-2.23,2.84-2.13,4.52.13,2.51,1.18,4.68,2.86,6.53.48.52.98,1.01,1.65,1.7,0-.88-.03-1.46,0-2.02.12-1.9,1.49-2.75,3.23-2.04,1.43.58,2.35,2.07,2.19,3.54-.17,1.61-1.19,2.69-2.94,3.02-2.97.57-5.34-.63-7.39-2.62-2.26-2.21-3.69-4.97-4.84-7.84-.33-.8-.6-1.62-.86-2.44-.42-1.37-.79-2.76-1.21-4.13,0-.04,0-.08,0-.11,0-.04,0-.08,0-.11.02,0,.04,0,.07,0s.07.03.13.07c.02.02.05.04.07.07.62.57,1.13,1.15,1.73,1.6,1.25.93,2.62.8,3.9-.29,1.07-.9,1.31-2.44.6-3.82-.7-1.34-1.96-1.97-3.4-1.61-.69.18-1.34.52-2.07.81.71-1.86.99-3.66-.97-4.92-.97-.62-2.52-.45-3.29.4-1.57,1.73-.89,3.42.36,5.12-.54-.1-.95-.2-1.36-.24-2.46-.31-4.33,1.94-3.53,4.24.46,1.31,1.46,1.99,2.8,2.12,1.46.15,2.38-.69,3.07-1.85.25-.44.47-.91.7-1.37.08.03.16.06.24.08,0,1.19.06,2.4,0,3.59-.23,4.3-1.25,8.39-3.38,12.15-1.15,2.03-2.66,3.71-5.14,4.1-1.47.23-2.81-.07-3.78-1.27-.83-1.02-.78-2.2-.25-3.35.37-.82.96-1.44,1.92-1.48.96-.03,1.58.54,1.96,1.37.25.55.46,1.13.7,1.73,1.97-2.45,2.79-5.03,2.75-8.53-.04-2.65-2.48-4.81-5.14-4.62-1.81.13-2.78,1.4-3.65,2.71-1.32,1.98-1.59,4.29-1.68,6.61-.02.5-.08.99-.13,1.49-.96-4.63-.71-9.11,1.48-13.42-2.61-1.13-5.03-2.48-7.17-4.33-.66-.57-1.02-1.2-1.04-2.09-.05-3.79-.12-7.58-.19-11.37v-1.02h13.72c0-.07.02-.13.03-.2-3.97-2.19-7.94-4.38-11.98-6.62,2.29-4.02,4.54-7.98,6.79-11.94-.04-.05-.08-.09-.12-.13-3.92,2.36-7.84,4.72-11.78,7.09-2.36-4.01-4.64-7.93-7.02-11.97v13.95h-13.59c0,.08-.02.16-.03.24,3.99,2.21,7.98,4.42,12,6.64-2.15,3.79-4.27,7.5-6.37,11.22-.07.11-.1.24-.14.38-.03.13-.06.26-.09.39h.02s.02-.02.04-.02c1.97-1.17,3.9-2.33,5.85-3.49,1.95-1.17,3.88-2.32,5.82-3.5,2.15,3.68,4.27,7.26,6.34,10.86.25.44.42,1.02.39,1.52-.1,1.91-.34,3.8-.47,5.7-.03.44.08.94.28,1.33.54,1.05,1.23,2.02,1.74,3.08,2.31,4.82,4.05,9.87,5.62,14.98.19.62.34,1.09,1.18,1.06.42,0,.91.33,1.27.63,1.78,1.5,2.49,3.53,2.7,5.75.13,1.36.23,2.87-.8,3.88-.88.87-.84,1.65-.49,2.63.15.42.27.87.33,1.32.09.75.53,1.24,1.18,1.48,1.45.53,2.9,1.12,4.39,1.44,7.74,1.65,15.6,2.12,23.47,2.2,1.57.02,3.13.02,4.7,0v-1.61c-1.58.02-3.15.02-4.73,0-6.66-.04-13.32-.18-19.91-1.31-1.58-.27-3.13-.7-4.68-1.12-.27-.08-.47-.44-.71-.67.24-.2.45-.53.72-.57,3.18-.6,6.34-1.4,9.54-1.67,4.92-.42,9.85-.55,14.79-.67,1.65-.04,3.31-.07,4.97-.08v-3.96c-.9.07-1.81-.33-2.54-1.17-1.96-2.26-1.91-6.54.1-8.73.7-.76,1.57-1.11,2.44-1.04v-31.04h-.3c-.39-5.07-.33-10.15-.34-15.51-.96,1.4-1.77,2.56-2.58,3.72-.09-.05-.18-.1-.26-.15.6-1.26,1.2-2.53,1.87-3.93-4.58,2.51-9.05,4.96-13.53,7.42-.07-.12-.14-.24-.22-.37,4.33-2.63,8.66-5.27,13.14-7.99-1.52-.14-2.9-.25-4.27-.38v-.3c1.39-.12,2.78-.24,4.27-.38-4.42-2.68-8.77-5.32-13.13-7.96.07-.12.14-.25.22-.38,4.43,2.43,8.87,4.86,13.47,7.38-.65-1.39-1.24-2.64-1.82-3.89.08-.06.17-.1.24-.16.82,1.17,1.63,2.33,2.51,3.6ZM76.23,155.96s0,0,.02,0c0,0,.03.02.03.02h-.05ZM54.76,140.61c-.07.08-.13.15-.2.22-1.09-.89-2.17-1.79-3.36-2.76,1.31,5.06,2.58,9.99,3.85,14.9-.14.04-.28.08-.42.11-1.49-4.84-2.96-9.68-4.49-14.68-.49,1.4-.94,2.7-1.4,4-.1-.03-.21-.05-.31-.08.12-.67.24-1.34.35-2.01.12-.67.24-1.34.36-2.01,0,0-.02-.02-.02-.03-.04-.04-.05-.06-.06-.07h0s0,0,0,0c-.42.42-.85.85-1.27,1.26-3.1,3.04-6.21,6.07-9.32,9.1-.11.11-.27.18-.41.26l-.2-.2c3.45-3.7,6.89-7.39,10.51-11.27-1.57.31-2.9.56-4.23.83-.04-.09-.07-.19-.1-.29,1.33-.5,2.65-1.01,4.01-1.52-4.99-1.39-9.91-2.75-14.83-4.12.02-.11.05-.23.08-.33,5.02.9,9.97,2.17,15.16,3.45-1.07-1.22-1.99-2.28-2.91-3.35.07-.07.13-.13.2-.21,1.07.88,2.14,1.77,3.34,2.75-1.31-5.05-2.58-9.97-3.85-14.88.14-.05.28-.08.42-.13,1.49,4.83,2.96,9.67,4.49,14.67.5-1.42.96-2.73,1.41-4.02.1.03.2.05.3.08-.23,1.34-.45,2.68-.72,4.25,3.4-3.35,6.67-6.55,9.93-9.76.13.12.25.24.38.37-3.14,3.35-6.28,6.69-9.54,10.16,1.5-.29,2.87-.55,4.22-.82.03.1.06.21.08.31-1.3.48-2.6.97-3.97,1.48,4.97,1.38,9.88,2.75,14.78,4.11-.04.15-.07.29-.1.43-4.91-1.13-9.83-2.26-14.99-3.45,1.06,1.21,1.96,2.24,2.86,3.26ZM79.92,169.99c.26.58.57,1.26.91,2,.82,1.38,1.59,2.7,2.32,3.94-.7-.08-1.52-.29-2.33-.24-.82.05-1.61.37-2.23.52.41-1.96.87-4.08,1.33-6.22ZM82.48,190.19c-1.16-1.06-2.28-2.1-3.39-3.14-.1-.1-.22-.21-.32-.32-.09-.09-.17-.17-.25-.25-.08-.08-.15-.15-.22-.22-.07-.08-.12-.14-.18-.2-.06-.07-.1-.12-.14-.18-.49-.62-.28-.95.52-2.19.86-1.34,1.66-2.61,2.55-3.98,1.79,1.57,3.54,3.12,5.37,4.72-1.31,1.92-2.59,3.79-3.93,5.75Z"/>
        <path class="cls-2" d="M100.21,31.18v19.44c-.3-.02-.6,0-.84.1-10.92,4.49-21.81,8.99-32.71,13.5-13.8,5.72-27.62,11.44-41.43,17.16-2.51,1.04-5.03,2.07-7.64,3.14-.06-.47-.13-.85-.14-1.23-.08-3.67-.12-7.33-.21-11.01-.05-2.02-.12-4.05-.23-6.08-.03-.64.16-.95.78-1.2,8.91-3.67,17.82-7.36,26.73-11.06,2.8-1.16,5.6-2.31,8.47-3.5,15.47-6.4,30.88-12.78,46.3-19.13.26-.1.6-.15.91-.13Z"/>
        <path class="cls-2" d="M100.21,74.72v19.48c-.29-.03-.6,0-.84.1-10.99,4.52-21.96,9.08-32.96,13.6-.9.37-1.93.58-2.9.59-7.83.05-15.67.03-23.6.03h-21.39c-.02-.07-.04-.13-.06-.2.95-.4,1.91-.81,2.86-1.2,20.26-8.38,40.53-16.75,60.78-25.12,5.8-2.41,11.59-4.82,17.4-7.21.19-.08.45-.1.7-.07Z"/>
        <path class="cls-2" d="M100.21,6.16v.86c-.31-.04-.63,0-.99.15-14.67,6.1-29.35,12.18-44.03,18.25-12.35,5.11-24.71,10.21-37.07,15.32-.61.25-1.22.5-1.94.79-.12-1.65-.19-3.18-.36-4.7-.4-3.65-1.33-7.11-3.92-9.87-.63-.68-1.37-1.25-2.27-2.05,2.91-1.11,5.79-2.2,8.66-3.29,2.87-1.09,5.73-2.18,8.6-3.28.61-.21,1.22-.42,1.83-.61.63-.23,1.27-.44,1.9-.64.55-.18,1.09-.36,1.65-.53.77-.26,1.54-.5,2.31-.73.97-.3,1.95-.59,2.91-.87.55-.17,1.11-.33,1.66-.48.97-.28,1.94-.55,2.91-.81,5.11-1.37,10.25-2.55,15.44-3.51,5.79-1.07,11.64-1.95,17.49-2.64,4.92-.58,9.88-.82,14.84-1.13,2.63-.17,5.27-.2,7.91-.21.82,0,1.65,0,2.46,0Z"/>
        <path class="cls-15" d="M100.21,1.69v2.74c-1.9-.02-3.8,0-5.7.05-6.04.16-12.06.68-18.09,1.18-7.5.64-14.92,1.88-22.29,3.41-15.19,3.16-29.88,7.82-44.09,14.03-.06.03-.11.05-.19.06-.07.02-.15.03-.25.04-.04,0-.08-.02-.1-.03,0,0,0,0,0,0l-.03-.03c1.15-1.56,2.34-3.08,3.44-4.67,1.33-1.92,2.58-3.89,3.91-5.92,1.37,1.37,3.01,1.19,4.7.71,9.08-2.63,18.21-5.09,27.54-6.69,7.34-1.27,14.73-2.35,22.13-3.27,4.8-.6,9.64-.83,14.46-1.15,2.87-.18,5.74-.24,8.61-.31,1.97-.05,3.97-.11,5.95-.13Z"/>
        <path class="cls-6" d="M100.21,95.47v13.03h-31.63s-.04-.1-.06-.16c.79-.35,1.58-.71,2.39-1.03,9.36-3.87,18.72-7.74,28.08-11.63.43-.18.83-.25,1.22-.21Z"/>
        <path class="cls-2" d="M100.21,215v1.18c-8,.05-15.82-1.2-23.48-3.63-9.22-2.91-17.58-7.52-25.49-13.07-8.17-5.74-14.42-13.17-19.71-21.52-3.86-6.13-7.06-12.58-9.39-19.45-1.43-4.25-2.22-8.62-2.6-13.07-.37-4.31-.71-8.62-.97-12.94-.22-3.56-.32-7.14-.42-10.71-.1-3.58-.15-7.16-.23-10.74v-1.04h1.17c.02.13.06.28.06.42.08,4.95.06,9.89.23,14.84.16,4.65.43,9.31.83,13.95.36,4.24.74,8.5,1.47,12.69,1.03,6.03,3.43,11.61,6.15,17.06,3.25,6.52,7.2,12.57,11.79,18.22,4.85,5.95,10.81,10.58,17.25,14.66,7.37,4.67,15.2,8.32,23.66,10.58,4.9,1.32,9.88,2.12,14.95,2.44,1.59.09,3.17.14,4.75.14Z"/>
        <path class="cls-6" d="M61.94,183.39c.63-1.11,1.77-.97,2.68.12,1.57,1.88,2.11,4.11,1.85,6.54-.03.3-.14.59-.25.87-.52,1.31-1.45,1.64-2.43.63-.77-.8-1.37-1.84-1.79-2.88-.68-1.68-.86-3.46-.07-5.27h0ZM64.16,185.88c.25.99.62,1.97.72,2.98.15,1.56,0,1.64-1.36.94.04.81.47,1.29,1.17,1.4.72.11,1.05-.47,1.1-1.07.21-2.4-.45-4.52-2.16-6.26-.12-.12-.31-.17-.63-.34.44.87.78,1.54,1.16,2.34Z"/>
        <path class="cls-5" d="M36.64,150.22s-.08.04-.12.06c.03-.04.05-.07.11-.07.03.03.02.02.02.02Z"/>
        <path class="cls-5" d="M116.92,139.79s0,.08-.02.11v.04s-.03-.05-.03-.08c0,0,0-.03.02-.05v-.02s.03,0,.03,0Z"/>
        <path class="cls-14" d="M100.21,193.41c-1.66.02-3.32.05-4.97.08-4.94.11-9.87.24-14.79.67-3.21.27-6.37,1.07-9.54,1.67-.27.05-.49.38-.72.57.24.23.43.59.71.67,1.55.42,3.1.85,4.68,1.12,6.59,1.13,13.26,1.27,19.91,1.31,1.58,0,3.15,0,4.73,0v-1.18c-.71,0-1.42,0-2.12,0-4.8-.06-9.58-.24-14.46-.37-.77-.09-1.53-.18-2.28-.26-2.23-.26-4.43-.54-6.63-.82-.44-.06-.87-.21-1.38-.33,2.84-1.29,14.84-1.97,26.88-1.96v-1.17Z"/>
        <path class="cls-9" d="M101.66,131.8s.05-.04.08-.05v-.03s-.07.05-.08.08ZM99.78,112.77c-.09,5.1-.19,10.2-.28,15.43-.88-1.27-1.69-2.44-2.51-3.6-.08.06-.16.1-.24.16.58,1.25,1.18,2.5,1.82,3.89-4.61-2.52-9.05-4.96-13.47-7.38-.08.12-.15.25-.22.38,4.35,2.64,8.71,5.28,13.13,7.96-1.49.13-2.88.25-4.27.38v.3c1.37.12,2.75.24,4.27.38-4.49,2.73-8.82,5.36-13.14,7.99.08.12.15.24.22.37,4.48-2.45,8.95-4.91,13.53-7.42-.67,1.4-1.27,2.67-1.87,3.93.08.05.17.1.26.15.81-1.17,1.62-2.32,2.58-3.72,0,5.37-.06,10.45.34,15.51h.3v-15.88c-.08.02-.17.02-.26.02-.85-.04-1.56-.85-1.31-1.68.14-.47.61-1.02,1.05-1.17.09-.03.18-.05.26-.07.08,0,.17-.02.25-.02v-14.96c-.02-.32-.04-.63-.06-.95h-.38Z"/>
        <path class="cls-13" d="M49.04,138.19c-.43.42-.85.84-1.28,1.26-3.1,3.04-6.21,6.07-9.31,9.1-.11.11-.28.18-.41.26-.07-.07-.13-.13-.2-.2,3.44-3.69,6.89-7.38,10.51-11.27-1.57.31-2.9.56-4.24.82-.03-.09-.07-.19-.1-.28,1.33-.51,2.66-1.01,4.01-1.53-4.99-1.39-9.91-2.75-14.83-4.12.03-.11.05-.22.08-.33,5.02.9,9.97,2.17,15.15,3.45-1.07-1.23-1.99-2.29-2.91-3.35.07-.07.13-.14.2-.21,1.07.88,2.14,1.77,3.33,2.75-1.3-5.05-2.57-9.97-3.84-14.89.14-.04.28-.08.42-.12,1.48,4.83,2.96,9.66,4.49,14.67.5-1.43.96-2.73,1.41-4.03.1.03.2.05.3.08-.23,1.34-.45,2.68-.72,4.25,3.4-3.35,6.67-6.55,9.93-9.76l.37.37c-3.14,3.35-6.29,6.69-9.55,10.16,1.51-.29,2.86-.55,4.22-.81.03.1.06.2.09.3-1.3.49-2.61.97-3.97,1.48,4.98,1.38,9.88,2.75,14.78,4.11-.04.14-.07.29-.11.43-4.91-1.13-9.82-2.26-14.98-3.45,1.06,1.21,1.96,2.23,2.85,3.26-.07.07-.13.15-.2.22-1.08-.9-2.17-1.79-3.35-2.77,1.3,5.06,2.57,9.98,3.84,14.9-.14.04-.28.08-.43.12-1.48-4.84-2.96-9.69-4.49-14.68-.49,1.4-.94,2.7-1.4,4-.1-.03-.21-.05-.31-.08.24-1.34.47-2.68.68-4.06,0-.08.02-.12.04-.17-.04.03-.07.06-.11.09h0ZM49.77,134.89c-.84.3-1.3.94-1.02,1.74.16.46.75.96,1.24,1.09.84.23,1.59-.53,1.61-1.41.03-.87-.6-1.41-1.83-1.43Z"/>
        <path class="cls-1" d="M100.21,179.5v-.99c-.87-.07-1.74.28-2.44,1.04-2.01,2.19-2.06,6.48-.1,8.73.72.84,1.64,1.23,2.54,1.17v-.95c-.25.04-.51,0-.76-.08-.42-.15-.83-.49-1.2-1.01-.12-.15-.24-.32-.35-.5,0-.02-.02-.05-.03-.07-.05-.1-.09-.22-.14-.32-.06-.13-.1-.26-.15-.39-.69-1.88-.54-3.69.51-5.43.55-.91,1.34-1.32,2.12-1.2Z"/>
        <path class="cls-7" d="M78.49,183.68c.85-1.33,1.67-2.61,2.55-3.98,1.79,1.58,3.55,3.12,5.37,4.73-1.31,1.92-2.59,3.79-3.93,5.75-1.15-1.07-2.27-2.1-3.39-3.14-.11-.1-.22-.21-.32-.32q-1.36-1.35-.27-3.04h0ZM83.53,186.99c.54-.79,1.08-1.58,1.64-2.41-1.33-1.17-2.59-2.28-3.92-3.44-.84,1.3-1.62,2.48-2.36,3.69-.1.16-.12.52-.02.63,1.1,1.11,2.23,2.18,3.41,3.32.45-.64.81-1.16,1.25-1.79Z"/>
        <path class="cls-4" d="M80.84,171.99c.81,1.38,1.59,2.7,2.32,3.94-.7-.08-1.53-.29-2.34-.24-.81.05-1.61.36-2.23.52.42-1.95.87-4.08,1.33-6.23.26.58.57,1.27.92,2.01Z"/>
        <path class="cls-12" d="M120.81,158.88s0,.08,0,.13c0,.05,0,.09-.03.15-.06,0-.08-.02-.13-.06,0,0-.02-.02-.04-.04.02-.05.05-.08.08-.11.04-.03.08-.06.12-.08Z"/>
        <path class="cls-12" d="M120.1,155.43c-.07-.03-.12-.05-.2-.09,0,0-.02-.02-.04-.03,0-.06,0-.08.04-.12,0,0,.02-.02.04-.04.04.04.07.08.09.13.02.05.05.1.07.15Z"/>
        <path class="cls-12" d="M79.04,158.67s-.05-.12-.06-.2c.04,0,.08,0,.14.06.02.05-.05.11-.08.14Z"/>
        <path class="cls-12" d="M76.24,155.95s.03.02.03.02c0,0-.04-.01-.03-.02Z"/>
        <path class="cls-10" d="M64.14,185.81c-.36-.74-.7-1.41-1.14-2.27.32.17.51.22.63.34,1.72,1.74,2.37,3.86,2.16,6.26-.05.6-.39,1.18-1.1,1.07-.7-.11-1.13-.59-1.17-1.4,1.35.69,1.51.62,1.36-.94-.1-1.01-.47-1.99-.74-3.05Z"/>
        <path class="cls-6" d="M100.21,194.58v3.73c-.71,0-1.42,0-2.12,0-4.8-.06-9.58-.24-14.46-.37h-.08c-.73-.08-1.47-.18-2.2-.26-2.23-.26-4.43-.54-6.63-.82-.44-.06-.87-.21-1.38-.33,2.84-1.29,14.84-1.97,26.88-1.96Z"/>
        <path class="cls-6" d="M99.96,128.69c.08,0,.17-.02.25-.02v2.91c-.08.02-.17.02-.26.02-.85-.04-1.56-.85-1.31-1.68.14-.47.61-1.02,1.05-1.17.09-.03.18-.05.26-.07Z"/>
        <path class="cls-5" d="M101.74,131.72v.03s0,.04-.02.06c0,0-.02,0-.03.03,0,0-.03,0-.05.03,0-.02,0-.04.02-.07,0-.03.04-.06.08-.08Z"/>
        <path class="cls-6" d="M49.84,134.87c1.16.03,1.79.57,1.76,1.44-.03.88-.77,1.63-1.61,1.41-.49-.13-1.08-.63-1.24-1.09-.28-.81.18-1.45,1.09-1.76Z"/>
        <path class="cls-5" d="M49.03,138.18s.08-.06.11-.09c-.02.04-.04.09-.09.1-.03-.03-.02-.02-.02-.01Z"/>
        <path class="cls-6" d="M98.95,186.18c.06.05.11.09.17.13.02,0,.04,0,.05,0,.27.11.5.14.69.12.02,0,.03,0,.04,0,.07-.02.12-.03.17-.05.06-.02.1-.05.15-.08v-6.83c-.79-.11-1.57.29-2.12,1.2-1.04,1.75-1.19,3.55-.51,5.43.05.13.09.26.15.39.05.1.09.22.14.32.12.21.25.39.38.56.39.51.79.85,1.2,1.01.25.09.51.12.76.08v-1.3c-.29.08-.58.08-.84.05-.63-.09-1.05-.64-1.12-1.54.19.12.35.24.49.33.07.06.14.09.21.14Z"/>
        <path class="cls-6" d="M83.49,187.04c-.4.57-.76,1.09-1.21,1.73-1.18-1.14-2.31-2.21-3.41-3.32-.11-.11-.08-.47.02-.63.75-1.21,1.53-2.39,2.36-3.69,1.32,1.16,2.59,2.27,3.92,3.44-.56.83-1.1,1.62-1.67,2.46h0ZM81.84,182.55c-.25-.03-.5-.05-.75-.08.04.25,0,.59.15.75.54.56,1.14,1.05,1.7,1.56q-1.53,2.38-.88,2.83c.07-.05.16-.09.2-.15.52-.75,1.01-1.51,1.56-2.24.3-.41.25-.69-.12-1.01-.6-.51-1.18-1.04-1.86-1.66Z"/>
        <path class="cls-8" d="M100.21,186.32v.88c-.29.08-.58.08-.84.05-.63-.09-1.05-.64-1.12-1.54.19.12.35.24.49.33.07.06.14.09.21.14.07.05.14.09.22.14,0,0,0,.02.02.02.26.11.49.14.67.1.02,0,.03,0,.04,0,.07,0,.12-.02.17-.05.06-.02.1-.05.15-.08Z"/>
        <path class="cls-11" d="M81.89,182.59c.64.57,1.22,1.1,1.82,1.61.37.31.42.6.12,1.01-.54.73-1.04,1.49-1.56,2.24-.05.07-.14.11-.2.15q-.65-.45.88-2.83c-.56-.51-1.17-1-1.7-1.56-.15-.15-.1-.49-.15-.75.25.03.5.05.8.13Z"/>
      </g>
      <g>
        <path class="cls-12" d="M190.98,23.16c-1.25-1.58-2.44-3.1-3.54-4.69-1.33-1.92-2.58-3.89-3.91-5.92-1.37,1.37-3.01,1.19-4.7.71-9.08-2.63-18.21-5.09-27.54-6.69-7.34-1.27-14.73-2.35-22.13-3.27-4.8-.6-9.64-.83-14.46-1.15-2.87-.18-5.74-.24-8.61-.31-1.97-.05-3.97-.11-5.95-.13V0c5.64,0,11.27,0,16.91,0,.14.12.28.33.44.35,1.65.14,3.31.24,4.96.39,2.52.22,5.05.45,7.57.7,2.34.24,4.68.46,7.01.76,2.66.35,5.32.72,7.97,1.15,3.04.49,6.06,1.01,9.08,1.59,2.73.53,5.46,1.04,8.15,1.75,5.09,1.33,10.15,2.79,15.21,4.19.58.16,1.17.34,1.76.41,2.11.27,2.95-.55,3.26-3.08.02-.12-.03-.26.02-.37.12-.24.26-.63.43-.66.22-.03.57.2.7.4.62,1.11,1.14,2.28,1.79,3.36,2.64,4.39,5.68,8.47,9.18,12.23,1.73,1.87,3.54,3.63,5.71,5.16.06.39.06.71.06,1.02-1.75-.18-3.48-.17-5.2.31-2.91.81-4.78,2.76-5.9,5.45-.87,2.05-1.21,4.2-1.32,6.44-.15,3.44-.48,6.87-.71,10.31-.14,2.24-.23,4.47-.37,6.7-.23,3.58-.5,7.17-.71,10.76-.11,1.85-.11,3.7-.21,5.54-.16,3.08-.37,6.16-.53,9.23-.08,1.58-.15,3.15-.19,4.72-.08,2.6-.09,5.22-.2,7.82-.16,4.01-.37,8.03-.54,12.04-.14,3.17-.24,6.35-.37,9.52-.18,4.5-.37,9.01-.55,13.52-.05,1.15-.1,2.29-.18,3.44-.24,3.43-.48,6.86-.71,10.3-.29,4.16-1.24,8.19-2.48,12.14-1.02,3.25-2.2,6.47-3.6,9.57-1.39,3.1-3.04,6.11-4.78,9.04-1.47,2.46-3.17,4.79-4.86,7.1-1.34,1.85-2.75,3.67-4.26,5.38-1.94,2.19-3.91,4.35-6.04,6.36-3.96,3.74-8.18,7.18-12.74,10.17-4.18,2.74-8.57,5.13-13.16,7.14-4.09,1.78-8.28,3.24-12.62,4.29-2.52.6-5.11.93-7.65,1.4-.55.1-1.08.27-1.72.48-2.9.03-5.77.05-8.63.06v-2.4c8,.05,15.82-1.2,23.48-3.63,9.22-2.91,17.58-7.52,25.49-13.07,8.17-5.74,14.42-13.17,19.71-21.52,3.86-6.13,7.06-12.58,9.39-19.45,1.43-4.25,2.22-8.62,2.6-13.07.37-4.31.71-8.62.97-12.94.22-3.56.32-7.14.42-10.71.1-3.58.15-7.16.23-10.74v-1.04h-1.17c-.02.13-.06.28-.06.42-.08,4.95-.06,9.89-.23,14.84-.16,4.65-.43,9.31-.83,13.95-.36,4.24-.74,8.5-1.47,12.69-1.03,6.03-3.43,11.61-6.15,17.06-3.25,6.52-7.2,12.57-11.79,18.22-4.85,5.95-10.81,10.58-17.25,14.66-7.37,4.67-15.2,8.32-23.66,10.58-4.9,1.32-9.88,2.12-14.95,2.44-1.59.09-3.17.14-4.75.14v-13.9c1.57,0,3.13,0,4.7,0,7.87-.08,15.73-.55,23.47-2.2,1.49-.32,2.94-.91,4.39-1.44.66-.24,1.09-.72,1.18-1.48.06-.44.18-.89.33-1.32.35-.99.39-1.76-.49-2.63-1.02-1.02-.93-2.52-.8-3.88.21-2.23.92-4.26,2.7-5.75.36-.3.85-.64,1.27-.63.84.03.99-.44,1.18-1.06,1.57-5.11,3.31-10.15,5.62-14.98.51-1.06,1.2-2.03,1.74-3.08.21-.39.31-.88.28-1.33-.13-1.9-.37-3.79-.47-5.7-.03-.5.14-1.08.39-1.52,2.07-3.6,4.18-7.18,6.34-10.86,1.94,1.18,3.87,2.33,5.82,3.5,1.93,1.17,3.86,2.32,5.78,3.48.04,0,.08.02.1.03h.02s.04,0,.06.02c.02,0,.03,0,.05,0,0,0,.02.02.03.02-.03-.04-.06-.08-.08-.11-.06-.09-.09-.21-.14-.33-.04-.13-.08-.26-.14-.38-2.1-3.71-4.21-7.43-6.37-11.22,4.01-2.22,8.01-4.43,12-6.64,0-.08-.02-.15-.03-.24h-13.59v-13.95c-2.38,4.04-4.66,7.95-7.02,11.97-3.94-2.37-7.86-4.73-11.78-7.09-.04.04-.08.08-.12.13,2.25,3.96,4.49,7.92,6.79,11.94-4.04,2.24-8.01,4.43-11.98,6.62,0,.07.02.13.03.2h13.72v1.02c-.07,3.79-.14,7.58-.19,11.37-.02.88-.39,1.51-1.04,2.09-2.14,1.84-4.56,3.2-7.17,4.33,2.18,4.31,2.44,8.79,1.48,13.42-.05-.5-.11-.99-.13-1.49-.09-2.32-.37-4.63-1.68-6.61-.87-1.31-1.83-2.58-3.65-2.71-2.66-.2-5.11,1.97-5.14,4.62-.05,3.5.77,6.07,2.75,8.53.24-.6.44-1.18.7-1.73.38-.84,1-1.4,1.96-1.37.96.04,1.55.66,1.92,1.48.53,1.15.57,2.32-.25,3.35-.97,1.2-2.31,1.5-3.78,1.27-2.48-.39-4-2.07-5.14-4.1-2.12-3.76-3.15-7.85-3.38-12.15-.07-1.19,0-2.4,0-3.59.08-.03.15-.06.24-.08.23.46.44.93.7,1.37.69,1.17,1.61,2,3.07,1.85,1.34-.13,2.34-.82,2.8-2.12.81-2.3-1.06-4.55-3.53-4.24-.41.05-.83.14-1.36.24,1.25-1.7,1.93-3.39.36-5.12-.77-.86-2.32-1.02-3.29-.4-1.96,1.26-1.67,3.06-.97,4.92-.73-.29-1.38-.63-2.07-.81-1.45-.37-2.71.26-3.4,1.61-.71,1.38-.47,2.91.6,3.82,1.28,1.09,2.65,1.22,3.9.29.6-.45,1.11-1.02,1.73-1.6.11-.04.18.03.18.03-.39,1.4-.73,2.81-1.15,4.18-.25.82-.53,1.64-.86,2.44-1.16,2.87-2.59,5.63-4.84,7.84-2.05,1.99-4.42,3.2-7.39,2.62-1.75-.33-2.77-1.41-2.94-3.02-.16-1.48.76-2.96,2.19-3.54,1.74-.71,3.11.14,3.23,2.04.04.56,0,1.14,0,2.02.68-.7,1.18-1.18,1.65-1.7,1.68-1.85,2.73-4.02,2.86-6.53.09-1.68-.43-3.61-2.13-4.52-1.57-.85-3.82-.49-5.44.86-1.88,1.55-3.06,3.57-3.86,5.83-.11.3-.24.59-.47.83.61-4.51,2.62-8.4,5.55-11.91-1.14-.92-2.28-1.75-3.31-2.72-1.2-1.15-2.31-2.4-3.41-3.65-.22-.24-.34-.74-.26-1.05,1.02-4.03,2.08-8.05,3.13-12.06,0-.06.07-.09.17-.23,4.36,1.19,8.75,2.4,12.87,3.53-3.03-3.1-6.22-6.37-9.24-9.49,3.25-3.43,6.39-6.74,9.57-10.09-4.38,1.19-8.79,2.41-13.3,3.64-1.18-4.49-2.33-8.91-3.49-13.33-.06,0-.1-.02-.16-.03-.04.14-.08.29-.11.43v-2.51h31.63s.04-.1.06-.16c-.79-.35-1.58-.71-2.39-1.03-9.36-3.87-18.72-7.74-28.08-11.63-.43-.18-.83-.25-1.22-.21v-1.27c.29-.03.6,0,.84.1,10.99,4.52,21.96,9.08,32.96,13.6.9.37,1.93.58,2.9.59,7.83.05,15.67.03,23.6.03h21.39c.02-.07.04-.13.06-.2-.95-.4-1.91-.81-2.86-1.2-20.26-8.38-40.53-16.75-60.78-25.12-5.8-2.41-11.59-4.82-17.4-7.21-.19-.08-.45-.1-.7-.07v-1.2c.27-.05.55-.05.77.05,11.58,4.78,23.16,9.58,34.74,14.37,10.48,4.34,20.98,8.68,31.46,13.01,4.82,1.99,9.65,3.99,14.47,5.99.22.08.44.17.75.28.04-.28.09-.51.09-.72.03-2.41.04-4.8.08-7.2.06-3.52.12-7.03.2-10.55,0-.67.06-1.34.13-1.99.08-.68-.18-1.02-.83-1.29-16.93-6.99-33.87-14-50.81-21.01-10.09-4.17-20.19-8.35-30.3-12.5-.22-.08-.49-.1-.76-.07v-1.26c.3-.02.6,0,.84.1,10.92,4.49,21.81,8.99,32.71,13.5,13.8,5.72,27.62,11.44,41.43,17.16,2.51,1.04,5.03,2.07,7.64,3.14.06-.47.13-.85.14-1.23.08-3.67.12-7.33.21-11.01.05-2.02.12-4.05.23-6.08.03-.64-.16-.95-.78-1.2-8.91-3.67-17.82-7.36-26.73-11.06-2.8-1.16-5.6-2.31-8.47-3.5-15.47-6.4-30.88-12.78-46.3-19.13-.26-.1-.6-.15-.91-.13v-1.26c.29-.04.6,0,.85.09,14.98,6.18,29.96,12.37,44.93,18.57,12.2,5.04,24.39,10.1,36.59,15.15.24.1.5.17.84.29.23-6.31.44-12.51.66-18.79,0-.34-.02-.58,0-.82.09-1.65.1-1.65-1.44-2.29-10.79-4.47-21.6-8.92-32.39-13.39-12.39-5.12-24.79-10.27-37.18-15.4-3.98-1.65-7.95-3.3-11.96-4.91-.25-.1-.58-.14-.89-.11v-1.3c.31-.04.63,0,.99.15,14.67,6.1,29.35,12.18,44.03,18.25,12.35,5.11,24.71,10.21,37.07,15.32.61.25,1.22.5,1.94.79.12-1.65.19-3.18.36-4.7.4-3.65,1.33-7.11,3.92-9.87.63-.68,1.37-1.25,2.27-2.05-2.91-1.11-5.79-2.2-8.66-3.29-2.86-1.08-5.7-2.16-8.54-3.24-.63-.22-1.27-.43-1.9-.65-.63-.23-1.27-.44-1.9-.64-.55-.18-1.09-.36-1.65-.53-.77-.26-1.54-.5-2.31-.73-.97-.3-1.95-.59-2.91-.87-.55-.17-1.11-.33-1.66-.48-.97-.28-1.94-.55-2.91-.81-5.11-1.37-10.25-2.55-15.44-3.51-5.79-1.07-11.64-1.95-17.49-2.64-4.92-.58-9.88-.82-14.84-1.13-2.63-.17-5.27-.2-7.91-.21-.82,0-1.65,0-2.46,0v-1.73c1.9-.02,3.8,0,5.7.05,6.04.16,12.06.68,18.09,1.18,7.5.64,14.92,1.88,22.29,3.41,15.19,3.16,29.88,7.82,44.09,14.03.06.03.11.05.19.06.05.02.1.04.16.05.1.03.17.05.23.06.04.02.08.03.13.04,0,0,0-.02,0-.04,0-.04,0-.07,0-.1ZM138.89,185.26c0-.13-.03-.25-.05-.39,0-.08-.02-.16-.05-.24-.03-.1-.05-.21-.08-.31-.04-.2-.1-.4-.19-.6,0-.02-.02-.04-.03-.07-.02-.07-.05-.13-.08-.2,0-.02-.02-.03-.03-.05,0,0,0,0,0-.02-.07-.12-.15-.23-.24-.32-.38-.4-.84-.51-1.31-.38-.07,0-.13.04-.2.08-.12.05-.25.12-.38.21-.07.05-.13.1-.2.16s-.13.11-.19.18c-.07.07-.12.13-.18.2-1.57,1.87-2.12,4.11-1.85,6.53.03.29.13.59.24.87.53,1.32,1.45,1.65,2.43.63.77-.8,1.37-1.84,1.8-2.88.28-.69.47-1.38.55-2.09.06-.43.07-.88,0-1.32ZM83.44,139.8v.02s0,.06,0,.08c0-.04,0-.08-.02-.11,0,0,0,0,.03,0ZM18.19,102.2v.09c0-.18-.03-.36-.04-.53.02.14.03.29.04.43Z"/>
        <path class="cls-6" d="M100.12,8.31v21.61c.29-.04.6,0,.85.09,14.98,6.18,29.96,12.37,44.93,18.57,12.2,5.04,24.39,10.1,36.59,15.15.24.1.5.17.84.29.23-6.31.44-12.51.66-18.79,0-.34-.02-.58,0-.82.09-1.65.1-1.65-1.44-2.29-10.79-4.47-21.6-8.92-32.39-13.39-12.39-5.12-24.79-10.27-37.18-15.4-3.98-1.65-7.95-3.3-11.96-4.91-.25-.1-.58-.14-.89-.11Z"/>
        <path class="cls-6" d="M100.12,51.88v21.64c.27-.05.55-.05.77.05,11.58,4.78,23.16,9.58,34.74,14.37,10.48,4.34,20.98,8.68,31.46,13.01,4.82,1.99,9.65,3.99,14.47,5.99.22.08.44.17.75.28.04-.28.09-.51.09-.72.03-2.41.04-4.8.08-7.2.06-3.52.12-7.03.2-10.55,0-.67.06-1.34.13-1.99.08-.68-.18-1.02-.83-1.29-16.93-6.99-33.87-14-50.81-21.01-10.09-4.17-20.19-8.35-30.3-12.5-.22-.08-.49-.1-.76-.07Z"/>
        <path class="cls-3" d="M18.15,101.76c0,.17.03.35.04.53v-.09c0-.14-.02-.29-.04-.43Z"/>
        <path class="cls-2" d="M100.84,128.19c-.09-5.23-.19-10.33-.28-15.43h-.38c-.02.32-.04.63-.06.95v-2.7c.04-.14.08-.29.11-.43.06,0,.1.02.16.03,1.16,4.42,2.31,8.84,3.49,13.33,4.5-1.23,8.91-2.44,13.3-3.64-3.18,3.35-6.32,6.66-9.57,10.09,3.03,3.11,6.22,6.38,9.24,9.49-4.12-1.13-8.51-2.33-12.87-3.53-.1.13-.16.17-.17.23-1.05,4.01-2.12,8.03-3.13,12.06-.08.31.05.81.26,1.05,1.1,1.25,2.21,2.5,3.41,3.65,1.02.97,2.17,1.8,3.31,2.72-2.92,3.52-4.94,7.4-5.55,11.91.24-.24.36-.53.47-.83.81-2.26,1.98-4.28,3.86-5.83,1.63-1.34,3.87-1.7,5.44-.86,1.7.91,2.23,2.84,2.13,4.52-.13,2.51-1.18,4.68-2.86,6.53-.48.52-.98,1.01-1.65,1.7,0-.88.03-1.46,0-2.02-.12-1.9-1.49-2.75-3.23-2.04-1.43.58-2.35,2.07-2.19,3.54.17,1.61,1.19,2.69,2.94,3.02,2.97.57,5.34-.63,7.39-2.62,2.26-2.21,3.69-4.97,4.84-7.84.33-.8.6-1.62.86-2.44.42-1.37.79-2.76,1.21-4.13,0-.04,0-.08,0-.11,0-.04,0-.08,0-.11-.02,0-.04,0-.07,0s-.07.03-.13.07c-.02.02-.05.04-.07.07-.62.57-1.13,1.15-1.73,1.6-1.25.93-2.62.8-3.9-.29-1.07-.9-1.31-2.44-.6-3.82.7-1.34,1.96-1.97,3.4-1.61.69.18,1.34.52,2.07.81-.71-1.86-.99-3.66.97-4.92.97-.62,2.52-.45,3.29.4,1.57,1.73.89,3.42-.36,5.12.54-.1.95-.2,1.36-.24,2.46-.31,4.33,1.94,3.53,4.24-.46,1.31-1.46,1.99-2.8,2.12-1.46.15-2.38-.69-3.07-1.85-.25-.44-.47-.91-.7-1.37-.08.03-.16.06-.24.08,0,1.19-.06,2.4,0,3.59.23,4.3,1.25,8.39,3.38,12.15,1.15,2.03,2.66,3.71,5.14,4.1,1.47.23,2.81-.07,3.78-1.27.83-1.02.78-2.2.25-3.35-.37-.82-.96-1.44-1.92-1.48-.96-.03-1.58.54-1.96,1.37-.25.55-.46,1.13-.7,1.73-1.97-2.45-2.79-5.03-2.75-8.53.04-2.65,2.48-4.81,5.14-4.62,1.81.13,2.78,1.4,3.65,2.71,1.32,1.98,1.59,4.29,1.68,6.61.02.5.08.99.13,1.49.96-4.63.71-9.11-1.48-13.42,2.61-1.13,5.03-2.48,7.17-4.33.66-.57,1.02-1.2,1.04-2.09.05-3.79.12-7.58.19-11.37v-1.02h-13.72c0-.07-.02-.13-.03-.2,3.97-2.19,7.94-4.38,11.98-6.62-2.29-4.02-4.54-7.98-6.79-11.94.04-.05.08-.09.12-.13,3.92,2.36,7.84,4.72,11.78,7.09,2.36-4.01,4.64-7.93,7.02-11.97v13.95h13.59c0,.08.02.16.03.24-3.99,2.21-7.98,4.42-12,6.64,2.15,3.79,4.27,7.5,6.37,11.22.07.11.1.24.14.38.03.13.06.26.09.39h-.02s-.02-.02-.04-.02c-1.97-1.17-3.9-2.33-5.85-3.49-1.95-1.17-3.88-2.32-5.82-3.5-2.15,3.68-4.27,7.26-6.34,10.86-.25.44-.42,1.02-.39,1.52.1,1.91.34,3.8.47,5.7.03.44-.08.94-.28,1.33-.54,1.05-1.23,2.02-1.74,3.08-2.31,4.82-4.05,9.87-5.62,14.98-.19.62-.34,1.09-1.18,1.06-.42,0-.91.33-1.27.63-1.78,1.5-2.49,3.53-2.7,5.75-.13,1.36-.23,2.87.8,3.88.88.87.84,1.65.49,2.63-.15.42-.27.87-.33,1.32-.09.75-.53,1.24-1.18,1.48-1.45.53-2.9,1.12-4.39,1.44-7.74,1.65-15.6,2.12-23.47,2.2-1.57.02-3.13.02-4.7,0v-1.61c1.58.02,3.15.02,4.73,0,6.66-.04,13.32-.18,19.91-1.31,1.58-.27,3.13-.7,4.68-1.12.27-.08.47-.44.71-.67-.24-.2-.45-.53-.72-.57-3.18-.6-6.34-1.4-9.54-1.67-4.92-.42-9.85-.55-14.79-.67-1.65-.04-3.31-.07-4.97-.08v-3.96c.9.07,1.81-.33,2.54-1.17,1.96-2.26,1.91-6.54-.1-8.73-.7-.76-1.57-1.11-2.44-1.04v-31.04h.3c.39-5.07.33-10.15.34-15.51.96,1.4,1.77,2.56,2.58,3.72.09-.05.18-.1.26-.15-.6-1.26-1.2-2.53-1.87-3.93,4.58,2.51,9.05,4.96,13.53,7.42.07-.12.14-.24.22-.37-4.33-2.63-8.66-5.27-13.14-7.99,1.52-.14,2.9-.25,4.27-.38v-.3c-1.39-.12-2.78-.24-4.27-.38,4.42-2.68,8.77-5.32,13.13-7.96-.07-.12-.14-.25-.22-.38-4.43,2.43-8.87,4.86-13.47,7.38.65-1.39,1.24-2.64,1.82-3.89-.08-.06-.17-.1-.24-.16-.82,1.17-1.63,2.33-2.51,3.6ZM124.11,155.96s0,0-.02,0c0,0-.03.02-.03.02h.05ZM145.57,140.61c.07.08.13.15.2.22,1.09-.89,2.17-1.79,3.36-2.76-1.31,5.06-2.58,9.99-3.85,14.9.14.04.28.08.42.11,1.49-4.84,2.96-9.68,4.49-14.68.49,1.4.94,2.7,1.4,4,.1-.03.21-.05.31-.08-.12-.67-.24-1.34-.35-2.01-.12-.67-.24-1.34-.36-2.01,0,0,.02-.02.02-.03.04-.04.05-.06.06-.07h0s0,0,0,0c.42.42.85.85,1.27,1.26,3.1,3.04,6.21,6.07,9.32,9.1.11.11.27.18.41.26l.2-.2c-3.45-3.7-6.89-7.39-10.51-11.27,1.57.31,2.9.56,4.23.83.04-.09.07-.19.1-.29-1.33-.5-2.65-1.01-4.01-1.52,4.99-1.39,9.91-2.75,14.83-4.12-.02-.11-.05-.23-.08-.33-5.02.9-9.97,2.17-15.16,3.45,1.07-1.22,1.99-2.28,2.91-3.35-.07-.07-.13-.13-.2-.21-1.07.88-2.14,1.77-3.34,2.75,1.31-5.05,2.58-9.97,3.85-14.88-.14-.05-.28-.08-.42-.13-1.49,4.83-2.96,9.67-4.49,14.67-.5-1.42-.96-2.73-1.41-4.02-.1.03-.2.05-.3.08.23,1.34.45,2.68.72,4.25-3.4-3.35-6.67-6.55-9.93-9.76-.13.12-.25.24-.38.37,3.14,3.35,6.28,6.69,9.54,10.16-1.5-.29-2.87-.55-4.22-.82-.03.1-.06.21-.08.31,1.3.48,2.6.97,3.97,1.48-4.97,1.38-9.88,2.75-14.78,4.11.04.15.07.29.1.43,4.91-1.13,9.83-2.26,14.99-3.45-1.06,1.21-1.96,2.24-2.86,3.26ZM120.41,169.99c-.26.58-.57,1.26-.91,2-.82,1.38-1.59,2.7-2.32,3.94.7-.08,1.52-.29,2.33-.24.82.05,1.61.37,2.23.52-.41-1.96-.87-4.08-1.33-6.22ZM117.86,190.19c1.16-1.06,2.28-2.1,3.39-3.14.1-.1.22-.21.32-.32.09-.09.17-.17.25-.25.08-.08.15-.15.22-.22.07-.08.12-.14.18-.2.06-.07.1-.12.14-.18.49-.62.28-.95-.52-2.19-.86-1.34-1.66-2.61-2.55-3.98-1.79,1.57-3.54,3.12-5.37,4.72,1.31,1.92,2.59,3.79,3.93,5.75Z"/>
        <path class="cls-2" d="M100.12,31.18v19.44c.3-.02.6,0,.84.1,10.92,4.49,21.81,8.99,32.71,13.5,13.8,5.72,27.62,11.44,41.43,17.16,2.51,1.04,5.03,2.07,7.64,3.14.06-.47.13-.85.14-1.23.08-3.67.12-7.33.21-11.01.05-2.02.12-4.05.23-6.08.03-.64-.16-.95-.78-1.2-8.91-3.67-17.82-7.36-26.73-11.06-2.8-1.16-5.6-2.31-8.47-3.5-15.47-6.4-30.88-12.78-46.3-19.13-.26-.1-.6-.15-.91-.13Z"/>
        <path class="cls-2" d="M100.12,74.72v19.48c.29-.03.6,0,.84.1,10.99,4.52,21.96,9.08,32.96,13.6.9.37,1.93.58,2.9.59,7.83.05,15.67.03,23.6.03h21.39c.02-.07.04-.13.06-.2-.95-.4-1.91-.81-2.86-1.2-20.26-8.38-40.53-16.75-60.78-25.12-5.8-2.41-11.59-4.82-17.4-7.21-.19-.08-.45-.1-.7-.07Z"/>
        <path class="cls-2" d="M100.12,6.16v.86c.31-.04.63,0,.99.15,14.67,6.1,29.35,12.18,44.03,18.25,12.35,5.11,24.71,10.21,37.07,15.32.61.25,1.22.5,1.94.79.12-1.65.19-3.18.36-4.7.4-3.65,1.33-7.11,3.92-9.87.63-.68,1.37-1.25,2.27-2.05-2.91-1.11-5.79-2.2-8.66-3.29-2.87-1.09-5.73-2.18-8.6-3.28-.61-.21-1.22-.42-1.83-.61-.63-.23-1.27-.44-1.9-.64-.55-.18-1.09-.36-1.65-.53-.77-.26-1.54-.5-2.31-.73-.97-.3-1.95-.59-2.91-.87-.55-.17-1.11-.33-1.66-.48-.97-.28-1.94-.55-2.91-.81-5.11-1.37-10.25-2.55-15.44-3.51-5.79-1.07-11.64-1.95-17.49-2.64-4.92-.58-9.88-.82-14.84-1.13-2.63-.17-5.27-.2-7.91-.21-.82,0-1.65,0-2.46,0Z"/>
        <path class="cls-15" d="M100.12,1.69v2.74c1.9-.02,3.8,0,5.7.05,6.04.16,12.06.68,18.09,1.18,7.5.64,14.92,1.88,22.29,3.41,15.19,3.16,29.88,7.82,44.09,14.03.06.03.11.05.19.06.07.02.15.03.25.04.04,0,.08-.02.1-.03,0,0,0,0,0,0l.03-.03c-1.15-1.56-2.34-3.08-3.44-4.67-1.33-1.92-2.58-3.89-3.91-5.92-1.37,1.37-3.01,1.19-4.7.71-9.08-2.63-18.21-5.09-27.54-6.69-7.34-1.27-14.73-2.35-22.13-3.27-4.8-.6-9.64-.83-14.46-1.15-2.87-.18-5.74-.24-8.61-.31-1.97-.05-3.97-.11-5.95-.13Z"/>
        <path class="cls-6" d="M100.12,95.47v13.03h31.63s.04-.1.06-.16c-.79-.35-1.58-.71-2.39-1.03-9.36-3.87-18.72-7.74-28.08-11.63-.43-.18-.83-.25-1.22-.21Z"/>
        <path class="cls-2" d="M100.12,215v1.18c8,.05,15.82-1.2,23.48-3.63,9.22-2.91,17.58-7.52,25.49-13.07,8.17-5.74,14.42-13.17,19.71-21.52,3.86-6.13,7.06-12.58,9.39-19.45,1.43-4.25,2.22-8.62,2.6-13.07.37-4.31.71-8.62.97-12.94.22-3.56.32-7.14.42-10.71.1-3.58.15-7.16.23-10.74v-1.04h-1.17c-.02.13-.06.28-.06.42-.08,4.95-.06,9.89-.23,14.84-.16,4.65-.43,9.31-.83,13.95-.36,4.24-.74,8.5-1.47,12.69-1.03,6.03-3.43,11.61-6.15,17.06-3.25,6.52-7.2,12.57-11.79,18.22-4.85,5.95-10.81,10.58-17.25,14.66-7.37,4.67-15.2,8.32-23.66,10.58-4.9,1.32-9.88,2.12-14.95,2.44-1.59.09-3.17.14-4.75.14Z"/>
        <path class="cls-6" d="M138.39,183.39c-.63-1.11-1.77-.97-2.68.12-1.57,1.88-2.11,4.11-1.85,6.54.03.3.14.59.25.87.52,1.31,1.45,1.64,2.43.63.77-.8,1.37-1.84,1.79-2.88.68-1.68.86-3.46.07-5.27h0ZM136.18,185.88c-.25.99-.62,1.97-.72,2.98-.15,1.56,0,1.64,1.36.94-.04.81-.47,1.29-1.17,1.4-.72.11-1.05-.47-1.1-1.07-.21-2.4.45-4.52,2.16-6.26.12-.12.31-.17.63-.34-.44.87-.78,1.54-1.16,2.34Z"/>
        <path class="cls-5" d="M163.69,150.22s.08.04.12.06c-.03-.04-.05-.07-.11-.07-.03.03-.02.02-.02.02Z"/>
        <path class="cls-5" d="M83.41,139.79s0,.08.02.11v.04s.03-.05.03-.08c0,0,0-.03-.02-.05v-.02s-.03,0-.03,0Z"/>
        <path class="cls-14" d="M100.12,193.41c1.66.02,3.32.05,4.97.08,4.94.11,9.87.24,14.79.67,3.21.27,6.37,1.07,9.54,1.67.27.05.49.38.72.57-.24.23-.43.59-.71.67-1.55.42-3.1.85-4.68,1.12-6.59,1.13-13.26,1.27-19.91,1.31-1.58,0-3.15,0-4.73,0v-1.18c.71,0,1.42,0,2.12,0,4.8-.06,9.58-.24,14.46-.37.77-.09,1.53-.18,2.28-.26,2.23-.26,4.43-.54,6.63-.82.44-.06.87-.21,1.38-.33-2.84-1.29-14.84-1.97-26.88-1.96v-1.17Z"/>
        <path class="cls-9" d="M98.67,131.8s-.05-.04-.08-.05v-.03s.07.05.08.08ZM100.56,112.77c.09,5.1.19,10.2.28,15.43.88-1.27,1.69-2.44,2.51-3.6.08.06.16.1.24.16-.58,1.25-1.18,2.5-1.82,3.89,4.61-2.52,9.05-4.96,13.47-7.38.08.12.15.25.22.38-4.35,2.64-8.71,5.28-13.13,7.96,1.49.13,2.88.25,4.27.38v.3c-1.37.12-2.75.24-4.27.38,4.49,2.73,8.82,5.36,13.14,7.99-.08.12-.15.24-.22.37-4.48-2.45-8.95-4.91-13.53-7.42.67,1.4,1.27,2.67,1.87,3.93-.08.05-.17.1-.26.15-.81-1.17-1.62-2.32-2.58-3.72,0,5.37.06,10.45-.34,15.51h-.3v-15.88c.08.02.17.02.26.02.85-.04,1.56-.85,1.31-1.68-.14-.47-.61-1.02-1.05-1.17-.09-.03-.18-.05-.26-.07-.08,0-.17-.02-.25-.02v-14.96c.02-.32.04-.63.06-.95h.38Z"/>
        <path class="cls-13" d="M151.3,138.19c.43.42.85.84,1.28,1.26,3.1,3.04,6.21,6.07,9.31,9.1.11.11.28.18.41.26.07-.07.13-.13.2-.2-3.44-3.69-6.89-7.38-10.51-11.27,1.57.31,2.9.56,4.24.82.03-.09.07-.19.1-.28-1.33-.51-2.66-1.01-4.01-1.53,4.99-1.39,9.91-2.75,14.83-4.12-.03-.11-.05-.22-.08-.33-5.02.9-9.97,2.17-15.15,3.45,1.07-1.23,1.99-2.29,2.91-3.35-.07-.07-.13-.14-.2-.21-1.07.88-2.14,1.77-3.33,2.75,1.3-5.05,2.57-9.97,3.84-14.89-.14-.04-.28-.08-.42-.12-1.48,4.83-2.96,9.66-4.49,14.67-.5-1.43-.96-2.73-1.41-4.03-.1.03-.2.05-.3.08.23,1.34.45,2.68.72,4.25-3.4-3.35-6.67-6.55-9.93-9.76l-.37.37c3.14,3.35,6.29,6.69,9.55,10.16-1.51-.29-2.86-.55-4.22-.81-.03.1-.06.2-.09.3,1.3.49,2.61.97,3.97,1.48-4.98,1.38-9.88,2.75-14.78,4.11.04.14.07.29.11.43,4.91-1.13,9.82-2.26,14.98-3.45-1.06,1.21-1.96,2.23-2.85,3.26.07.07.13.15.2.22,1.08-.9,2.17-1.79,3.35-2.77-1.3,5.06-2.57,9.98-3.84,14.9.14.04.28.08.43.12,1.48-4.84,2.96-9.69,4.49-14.68.49,1.4.94,2.7,1.4,4,.1-.03.21-.05.31-.08-.24-1.34-.47-2.68-.68-4.06,0-.08-.02-.12-.04-.17.04.03.07.06.11.09h0ZM150.57,134.89c.84.3,1.3.94,1.02,1.74-.16.46-.75.96-1.24,1.09-.84.23-1.59-.53-1.61-1.41-.03-.87.6-1.41,1.83-1.43Z"/>
        <path class="cls-1" d="M100.12,179.5v-.99c.87-.07,1.74.28,2.44,1.04,2.01,2.19,2.06,6.48.1,8.73-.72.84-1.64,1.23-2.54,1.17v-.95c.25.04.51,0,.76-.08.42-.15.83-.49,1.2-1.01.12-.15.24-.32.35-.5,0-.02.02-.05.03-.07.05-.1.09-.22.14-.32.06-.13.1-.26.15-.39.69-1.88.54-3.69-.51-5.43-.55-.91-1.34-1.32-2.12-1.2Z"/>
        <path class="cls-7" d="M121.84,183.68c-.85-1.33-1.67-2.61-2.55-3.98-1.79,1.58-3.55,3.12-5.37,4.73,1.31,1.92,2.59,3.79,3.93,5.75,1.15-1.07,2.27-2.1,3.39-3.14.11-.1.22-.21.32-.32q1.36-1.35.27-3.04h0ZM116.81,186.99c-.54-.79-1.08-1.58-1.64-2.41,1.33-1.17,2.59-2.28,3.92-3.44.84,1.3,1.62,2.48,2.36,3.69.1.16.12.52.02.63-1.1,1.11-2.23,2.18-3.41,3.32-.45-.64-.81-1.16-1.25-1.79Z"/>
        <path class="cls-4" d="M119.5,171.99c-.81,1.38-1.59,2.7-2.32,3.94.7-.08,1.53-.29,2.34-.24.81.05,1.61.36,2.23.52-.42-1.95-.87-4.08-1.33-6.23-.26.58-.57,1.27-.92,2.01Z"/>
        <path class="cls-12" d="M79.52,158.88s0,.08,0,.13c0,.05,0,.09.03.15.06,0,.08-.02.13-.06,0,0,.02-.02.04-.04-.02-.05-.05-.08-.08-.11-.04-.03-.08-.06-.12-.08Z"/>
        <path class="cls-12" d="M80.24,155.43c.07-.03.12-.05.2-.09,0,0,.02-.02.04-.03,0-.06,0-.08-.04-.12,0,0-.02-.02-.04-.04-.04.04-.07.08-.09.13-.02.05-.05.1-.07.15Z"/>
        <path class="cls-12" d="M121.29,158.67s.05-.12.06-.2c-.04,0-.08,0-.14.06-.02.05.05.11.08.14Z"/>
        <path class="cls-12" d="M124.09,155.95s-.03.02-.03.02c0,0,.04-.01.03-.02Z"/>
        <path class="cls-10" d="M136.2,185.81c.36-.74.7-1.41,1.14-2.27-.32.17-.51.22-.63.34-1.72,1.74-2.37,3.86-2.16,6.26.05.6.39,1.18,1.1,1.07.7-.11,1.13-.59,1.17-1.4-1.35.69-1.51.62-1.36-.94.1-1.01.47-1.99.74-3.05Z"/>
        <path class="cls-6" d="M100.12,194.58v3.73c.71,0,1.42,0,2.12,0,4.8-.06,9.58-.24,14.46-.37h.08c.73-.08,1.47-.18,2.2-.26,2.23-.26,4.43-.54,6.63-.82.44-.06.87-.21,1.38-.33-2.84-1.29-14.84-1.97-26.88-1.96Z"/>
        <path class="cls-6" d="M100.38,128.69c-.08,0-.17-.02-.25-.02v2.91c.08.02.17.02.26.02.85-.04,1.56-.85,1.31-1.68-.14-.47-.61-1.02-1.05-1.17-.09-.03-.18-.05-.26-.07Z"/>
        <path class="cls-5" d="M98.6,131.72v.03s0,.04.02.06c0,0,.02,0,.03.03,0,0,.03,0,.05.03,0-.02,0-.04-.02-.07,0-.03-.04-.06-.08-.08Z"/>
        <path class="cls-6" d="M150.5,134.87c-1.16.03-1.79.57-1.76,1.44.03.88.77,1.63,1.61,1.41.49-.13,1.08-.63,1.24-1.09.28-.81-.18-1.45-1.09-1.76Z"/>
        <path class="cls-5" d="M151.3,138.18s-.08-.06-.11-.09c.02.04.04.09.09.1.03-.03.02-.02.02-.01Z"/>
        <path class="cls-6" d="M101.38,186.18c-.06.05-.11.09-.17.13-.02,0-.04,0-.05,0-.27.11-.5.14-.69.12-.02,0-.03,0-.04,0-.07-.02-.12-.03-.17-.05-.06-.02-.1-.05-.15-.08v-6.83c.79-.11,1.57.29,2.12,1.2,1.04,1.75,1.19,3.55.51,5.43-.05.13-.09.26-.15.39-.05.1-.09.22-.14.32-.12.21-.25.39-.38.56-.39.51-.79.85-1.2,1.01-.25.09-.51.12-.76.08v-1.3c.29.08.58.08.84.05.63-.09,1.05-.64,1.12-1.54-.19.12-.35.24-.49.33-.07.06-.14.09-.21.14Z"/>
        <path class="cls-6" d="M116.84,187.04c.4.57.76,1.09,1.21,1.73,1.18-1.14,2.31-2.21,3.41-3.32.11-.11.08-.47-.02-.63-.75-1.21-1.53-2.39-2.36-3.69-1.32,1.16-2.59,2.27-3.92,3.44.56.83,1.1,1.62,1.67,2.46h0ZM118.49,182.55c.25-.03.5-.05.75-.08-.04.25,0,.59-.15.75-.54.56-1.14,1.05-1.7,1.56q1.53,2.38.88,2.83c-.07-.05-.16-.09-.2-.15-.52-.75-1.01-1.51-1.56-2.24-.3-.41-.25-.69.12-1.01.6-.51,1.18-1.04,1.86-1.66Z"/>
        <path class="cls-8" d="M100.12,186.32v.88c.29.08.58.08.84.05.63-.09,1.05-.64,1.12-1.54-.19.12-.35.24-.49.33-.07.06-.14.09-.21.14-.07.05-.14.09-.22.14,0,0,0,.02-.02.02-.26.11-.49.14-.67.1-.02,0-.03,0-.04,0-.07,0-.12-.02-.17-.05-.06-.02-.1-.05-.15-.08Z"/>
        <path class="cls-11" d="M118.45,182.59c-.64.57-1.22,1.1-1.82,1.61-.37.31-.42.6-.12,1.01.54.73,1.04,1.49,1.56,2.24.05.07.14.11.2.15q.65-.45-.88-2.83c.56-.51,1.17-1,1.7-1.56.15-.15.1-.49.15-.75-.25.03-.5.05-.8.13Z"/>
      </g>
    </g>
  </g>
</svg>